<svg xmlns="http://www.w3.org/2000/svg" version="1.1" xmlns:xlink="http://www.w3.org/1999/xlink" xmlns:svgjs="http://svgjs.com/svgjs" width="1440" height="560" preserveAspectRatio="none" viewBox="0 0 1440 560"><g mask="url(&quot;#SvgjsMask1034&quot;)" fill="none"><rect width="1440" height="560" x="0" y="0" fill="rgba(147, 51, 133, 1)"></rect><path d="M0,616.563C119.018,633.244,253.011,613.636,343.62,534.684C431.982,457.69,427.564,323.329,464.269,212.025C496.42,114.532,565.795,22.218,545.825,-78.478C526.076,-178.064,418.008,-228.674,360.306,-312.207C292.962,-409.698,293.024,-577.403,178.979,-609.548C64.555,-641.8,-17.439,-481.169,-132.455,-451.099C-253.239,-419.521,-397.019,-504.442,-498.92,-432.316C-601.208,-359.917,-619.059,-215.578,-639.813,-91.991C-660.956,33.916,-688.994,175.918,-618.987,282.682C-549.908,388.03,-397.709,386.514,-286.833,446.32C-186.954,500.194,-112.384,600.811,0,616.563" fill="#6e2664"></path><path d="M1440 1032.586C1529.915 1037.785 1624.647 1012.077 1692.3890000000001 952.7239999999999 1756.979 896.133 1772.488 804.913 1794.569 721.9259999999999 1813.458 650.938 1828.4279999999999 578.028 1811.0819999999999 506.647 1794.6309999999999 438.949 1743.657 388.975 1700.388 334.372 1655.0149999999999 277.113 1619.343 207.132 1551.757 179.392 1481.638 150.613 1403.808 169.803 1328.991 181.938 1244.333 195.66899999999998 1154.534 201.01 1087.6309999999999 254.671 1014.985 312.938 940.269 396.058 946.1600000000001 488.997 952.126 583.12 1068.078 626.785 1116.353 707.8050000000001 1157.185 776.335 1149.388 868.077 1205.6970000000001 924.5830000000001 1267.656 986.759 1352.369 1027.519 1440 1032.586" fill="#b840a6"></path></g><defs><mask id="SvgjsMask1034"><rect width="1440" height="560" fill="#ffffff"></rect></mask></defs></svg>